<mxfile host="app.diagrams.net" modified="2023-12-02T17:31:07.311Z" agent="Mozilla/5.0 (Windows NT 10.0; Win64; x64) AppleWebKit/537.36 (KHTML, like Gecko) Chrome/119.0.0.0 Safari/537.36" etag="AT4knfAcv-4yfxSTCaNv" version="22.1.5" type="github">
  <diagram name="Сторінка-1" id="FEQJGgrrSdAZjOvRCUfc">
    <mxGraphModel dx="1441" dy="1881" grid="1" gridSize="10" guides="1" tooltips="1" connect="1" arrows="1" fold="1" page="1" pageScale="1" pageWidth="827" pageHeight="1169" math="0" shadow="0">
      <root>
        <mxCell id="0" />
        <mxCell id="1" parent="0" />
        <mxCell id="k2Xm3GfNOow417cLPWmE-77" value="" style="group" vertex="1" connectable="0" parent="1">
          <mxGeometry x="740" y="-10" width="670" height="640" as="geometry" />
        </mxCell>
        <object label="Record" Record="" id="k2Xm3GfNOow417cLPWmE-1">
          <mxCell style="swimlane;fontStyle=0;childLayout=stackLayout;horizontal=1;startSize=30;horizontalStack=0;resizeParent=1;resizeParentMax=0;resizeLast=0;collapsible=1;marginBottom=0;whiteSpace=wrap;html=1;" vertex="1" parent="k2Xm3GfNOow417cLPWmE-77">
            <mxGeometry y="200" width="140" height="240" as="geometry">
              <mxRectangle x="80" y="80" width="60" height="30" as="alternateBounds" />
            </mxGeometry>
          </mxCell>
        </object>
        <mxCell id="k2Xm3GfNOow417cLPWmE-2" value="birthday" style="text;strokeColor=none;fillColor=none;align=left;verticalAlign=middle;spacingLeft=4;spacingRight=4;overflow=hidden;points=[[0,0.5],[1,0.5]];portConstraint=eastwest;rotatable=0;whiteSpace=wrap;html=1;" vertex="1" parent="k2Xm3GfNOow417cLPWmE-1">
          <mxGeometry y="30" width="140" height="30" as="geometry" />
        </mxCell>
        <mxCell id="k2Xm3GfNOow417cLPWmE-3" value="name" style="text;strokeColor=none;fillColor=none;align=left;verticalAlign=middle;spacingLeft=4;spacingRight=4;overflow=hidden;points=[[0,0.5],[1,0.5]];portConstraint=eastwest;rotatable=0;whiteSpace=wrap;html=1;" vertex="1" parent="k2Xm3GfNOow417cLPWmE-1">
          <mxGeometry y="60" width="140" height="30" as="geometry" />
        </mxCell>
        <mxCell id="k2Xm3GfNOow417cLPWmE-4" value="phones" style="text;strokeColor=none;fillColor=none;align=left;verticalAlign=middle;spacingLeft=4;spacingRight=4;overflow=hidden;points=[[0,0.5],[1,0.5]];portConstraint=eastwest;rotatable=0;whiteSpace=wrap;html=1;" vertex="1" parent="k2Xm3GfNOow417cLPWmE-1">
          <mxGeometry y="90" width="140" height="30" as="geometry" />
        </mxCell>
        <mxCell id="k2Xm3GfNOow417cLPWmE-24" value="email" style="text;strokeColor=none;fillColor=none;align=left;verticalAlign=middle;spacingLeft=4;spacingRight=4;overflow=hidden;points=[[0,0.5],[1,0.5]];portConstraint=eastwest;rotatable=0;whiteSpace=wrap;html=1;" vertex="1" parent="k2Xm3GfNOow417cLPWmE-1">
          <mxGeometry y="120" width="140" height="30" as="geometry" />
        </mxCell>
        <mxCell id="k2Xm3GfNOow417cLPWmE-25" value="status" style="text;strokeColor=none;fillColor=none;align=left;verticalAlign=middle;spacingLeft=4;spacingRight=4;overflow=hidden;points=[[0,0.5],[1,0.5]];portConstraint=eastwest;rotatable=0;whiteSpace=wrap;html=1;" vertex="1" parent="k2Xm3GfNOow417cLPWmE-1">
          <mxGeometry y="150" width="140" height="30" as="geometry" />
        </mxCell>
        <mxCell id="k2Xm3GfNOow417cLPWmE-26" value="note" style="text;strokeColor=none;fillColor=none;align=left;verticalAlign=middle;spacingLeft=4;spacingRight=4;overflow=hidden;points=[[0,0.5],[1,0.5]];portConstraint=eastwest;rotatable=0;whiteSpace=wrap;html=1;" vertex="1" parent="k2Xm3GfNOow417cLPWmE-1">
          <mxGeometry y="180" width="140" height="30" as="geometry" />
        </mxCell>
        <mxCell id="k2Xm3GfNOow417cLPWmE-27" value="days_to_birthday()" style="text;strokeColor=none;fillColor=none;align=left;verticalAlign=middle;spacingLeft=4;spacingRight=4;overflow=hidden;points=[[0,0.5],[1,0.5]];portConstraint=eastwest;rotatable=0;whiteSpace=wrap;html=1;" vertex="1" parent="k2Xm3GfNOow417cLPWmE-1">
          <mxGeometry y="210" width="140" height="30" as="geometry" />
        </mxCell>
        <mxCell id="k2Xm3GfNOow417cLPWmE-9" value="Field" style="swimlane;fontStyle=0;childLayout=stackLayout;horizontal=1;startSize=30;horizontalStack=0;resizeParent=1;resizeParentMax=0;resizeLast=0;collapsible=1;marginBottom=0;whiteSpace=wrap;html=1;" vertex="1" parent="k2Xm3GfNOow417cLPWmE-77">
          <mxGeometry x="530" y="290" width="140" height="60" as="geometry" />
        </mxCell>
        <mxCell id="k2Xm3GfNOow417cLPWmE-10" value="__getitem__()" style="text;strokeColor=none;fillColor=none;align=left;verticalAlign=middle;spacingLeft=4;spacingRight=4;overflow=hidden;points=[[0,0.5],[1,0.5]];portConstraint=eastwest;rotatable=0;whiteSpace=wrap;html=1;" vertex="1" parent="k2Xm3GfNOow417cLPWmE-9">
          <mxGeometry y="30" width="140" height="30" as="geometry" />
        </mxCell>
        <mxCell id="k2Xm3GfNOow417cLPWmE-55" value="" style="group" vertex="1" connectable="0" parent="k2Xm3GfNOow417cLPWmE-77">
          <mxGeometry x="260" width="140" height="640" as="geometry" />
        </mxCell>
        <mxCell id="k2Xm3GfNOow417cLPWmE-71" style="edgeStyle=orthogonalEdgeStyle;rounded=0;orthogonalLoop=1;jettySize=auto;html=1;endArrow=none;endFill=0;" edge="1" parent="k2Xm3GfNOow417cLPWmE-55" source="k2Xm3GfNOow417cLPWmE-5">
          <mxGeometry relative="1" as="geometry">
            <mxPoint x="210" y="155" as="targetPoint" />
          </mxGeometry>
        </mxCell>
        <mxCell id="k2Xm3GfNOow417cLPWmE-5" value="Phone" style="swimlane;fontStyle=0;childLayout=stackLayout;horizontal=1;startSize=30;horizontalStack=0;resizeParent=1;resizeParentMax=0;resizeLast=0;collapsible=1;marginBottom=0;whiteSpace=wrap;html=1;" vertex="1" parent="k2Xm3GfNOow417cLPWmE-55">
          <mxGeometry y="110" width="140" height="90" as="geometry" />
        </mxCell>
        <mxCell id="k2Xm3GfNOow417cLPWmE-64" style="edgeStyle=orthogonalEdgeStyle;rounded=0;orthogonalLoop=1;jettySize=auto;html=1;endArrow=none;endFill=0;" edge="1" parent="k2Xm3GfNOow417cLPWmE-5" source="k2Xm3GfNOow417cLPWmE-6">
          <mxGeometry relative="1" as="geometry">
            <mxPoint x="-70" y="45" as="targetPoint" />
          </mxGeometry>
        </mxCell>
        <mxCell id="k2Xm3GfNOow417cLPWmE-6" value="value" style="text;strokeColor=none;fillColor=none;align=left;verticalAlign=middle;spacingLeft=4;spacingRight=4;overflow=hidden;points=[[0,0.5],[1,0.5]];portConstraint=eastwest;rotatable=0;whiteSpace=wrap;html=1;" vertex="1" parent="k2Xm3GfNOow417cLPWmE-5">
          <mxGeometry y="30" width="140" height="30" as="geometry" />
        </mxCell>
        <mxCell id="k2Xm3GfNOow417cLPWmE-7" value="__getitem__()" style="text;strokeColor=none;fillColor=none;align=left;verticalAlign=middle;spacingLeft=4;spacingRight=4;overflow=hidden;points=[[0,0.5],[1,0.5]];portConstraint=eastwest;rotatable=0;whiteSpace=wrap;html=1;" vertex="1" parent="k2Xm3GfNOow417cLPWmE-5">
          <mxGeometry y="60" width="140" height="30" as="geometry" />
        </mxCell>
        <mxCell id="k2Xm3GfNOow417cLPWmE-13" value="Name" style="swimlane;fontStyle=0;childLayout=stackLayout;horizontal=1;startSize=30;horizontalStack=0;resizeParent=1;resizeParentMax=0;resizeLast=0;collapsible=1;marginBottom=0;whiteSpace=wrap;html=1;" vertex="1" parent="k2Xm3GfNOow417cLPWmE-55">
          <mxGeometry width="140" height="90" as="geometry" />
        </mxCell>
        <mxCell id="k2Xm3GfNOow417cLPWmE-14" value="value" style="text;strokeColor=none;fillColor=none;align=left;verticalAlign=middle;spacingLeft=4;spacingRight=4;overflow=hidden;points=[[0,0.5],[1,0.5]];portConstraint=eastwest;rotatable=0;whiteSpace=wrap;html=1;" vertex="1" parent="k2Xm3GfNOow417cLPWmE-13">
          <mxGeometry y="30" width="140" height="30" as="geometry" />
        </mxCell>
        <mxCell id="k2Xm3GfNOow417cLPWmE-15" value="__getitem__()" style="text;strokeColor=none;fillColor=none;align=left;verticalAlign=middle;spacingLeft=4;spacingRight=4;overflow=hidden;points=[[0,0.5],[1,0.5]];portConstraint=eastwest;rotatable=0;whiteSpace=wrap;html=1;" vertex="1" parent="k2Xm3GfNOow417cLPWmE-13">
          <mxGeometry y="60" width="140" height="30" as="geometry" />
        </mxCell>
        <mxCell id="k2Xm3GfNOow417cLPWmE-35" value="Birthday" style="swimlane;fontStyle=0;childLayout=stackLayout;horizontal=1;startSize=30;horizontalStack=0;resizeParent=1;resizeParentMax=0;resizeLast=0;collapsible=1;marginBottom=0;whiteSpace=wrap;html=1;" vertex="1" parent="k2Xm3GfNOow417cLPWmE-55">
          <mxGeometry y="220" width="140" height="90" as="geometry" />
        </mxCell>
        <mxCell id="k2Xm3GfNOow417cLPWmE-65" style="edgeStyle=orthogonalEdgeStyle;rounded=0;orthogonalLoop=1;jettySize=auto;html=1;endArrow=none;endFill=0;" edge="1" parent="k2Xm3GfNOow417cLPWmE-35" source="k2Xm3GfNOow417cLPWmE-36">
          <mxGeometry relative="1" as="geometry">
            <mxPoint x="-70" y="44.999999999999886" as="targetPoint" />
          </mxGeometry>
        </mxCell>
        <mxCell id="k2Xm3GfNOow417cLPWmE-72" style="edgeStyle=orthogonalEdgeStyle;rounded=0;orthogonalLoop=1;jettySize=auto;html=1;endArrow=none;endFill=0;" edge="1" parent="k2Xm3GfNOow417cLPWmE-35" source="k2Xm3GfNOow417cLPWmE-36">
          <mxGeometry relative="1" as="geometry">
            <mxPoint x="210" y="45" as="targetPoint" />
          </mxGeometry>
        </mxCell>
        <mxCell id="k2Xm3GfNOow417cLPWmE-36" value="value" style="text;strokeColor=none;fillColor=none;align=left;verticalAlign=middle;spacingLeft=4;spacingRight=4;overflow=hidden;points=[[0,0.5],[1,0.5]];portConstraint=eastwest;rotatable=0;whiteSpace=wrap;html=1;" vertex="1" parent="k2Xm3GfNOow417cLPWmE-35">
          <mxGeometry y="30" width="140" height="30" as="geometry" />
        </mxCell>
        <mxCell id="k2Xm3GfNOow417cLPWmE-37" value="__getitem__()" style="text;strokeColor=none;fillColor=none;align=left;verticalAlign=middle;spacingLeft=4;spacingRight=4;overflow=hidden;points=[[0,0.5],[1,0.5]];portConstraint=eastwest;rotatable=0;whiteSpace=wrap;html=1;" vertex="1" parent="k2Xm3GfNOow417cLPWmE-35">
          <mxGeometry y="60" width="140" height="30" as="geometry" />
        </mxCell>
        <mxCell id="k2Xm3GfNOow417cLPWmE-39" value="Email" style="swimlane;fontStyle=0;childLayout=stackLayout;horizontal=1;startSize=30;horizontalStack=0;resizeParent=1;resizeParentMax=0;resizeLast=0;collapsible=1;marginBottom=0;whiteSpace=wrap;html=1;" vertex="1" parent="k2Xm3GfNOow417cLPWmE-55">
          <mxGeometry y="330" width="140" height="90" as="geometry" />
        </mxCell>
        <mxCell id="k2Xm3GfNOow417cLPWmE-66" style="edgeStyle=orthogonalEdgeStyle;rounded=0;orthogonalLoop=1;jettySize=auto;html=1;endArrow=none;endFill=0;" edge="1" parent="k2Xm3GfNOow417cLPWmE-39" source="k2Xm3GfNOow417cLPWmE-40">
          <mxGeometry relative="1" as="geometry">
            <mxPoint x="-70" y="-9.999999999999886" as="targetPoint" />
            <Array as="points">
              <mxPoint x="-70" y="45" />
            </Array>
          </mxGeometry>
        </mxCell>
        <mxCell id="k2Xm3GfNOow417cLPWmE-73" style="edgeStyle=orthogonalEdgeStyle;rounded=0;orthogonalLoop=1;jettySize=auto;html=1;endArrow=none;endFill=0;" edge="1" parent="k2Xm3GfNOow417cLPWmE-39" source="k2Xm3GfNOow417cLPWmE-40">
          <mxGeometry relative="1" as="geometry">
            <mxPoint x="210" y="-10" as="targetPoint" />
            <Array as="points">
              <mxPoint x="210" y="45" />
            </Array>
          </mxGeometry>
        </mxCell>
        <mxCell id="k2Xm3GfNOow417cLPWmE-40" value="value" style="text;strokeColor=none;fillColor=none;align=left;verticalAlign=middle;spacingLeft=4;spacingRight=4;overflow=hidden;points=[[0,0.5],[1,0.5]];portConstraint=eastwest;rotatable=0;whiteSpace=wrap;html=1;" vertex="1" parent="k2Xm3GfNOow417cLPWmE-39">
          <mxGeometry y="30" width="140" height="30" as="geometry" />
        </mxCell>
        <mxCell id="k2Xm3GfNOow417cLPWmE-41" value="__getitem__()" style="text;strokeColor=none;fillColor=none;align=left;verticalAlign=middle;spacingLeft=4;spacingRight=4;overflow=hidden;points=[[0,0.5],[1,0.5]];portConstraint=eastwest;rotatable=0;whiteSpace=wrap;html=1;" vertex="1" parent="k2Xm3GfNOow417cLPWmE-39">
          <mxGeometry y="60" width="140" height="30" as="geometry" />
        </mxCell>
        <mxCell id="k2Xm3GfNOow417cLPWmE-47" value="Status" style="swimlane;fontStyle=0;childLayout=stackLayout;horizontal=1;startSize=30;horizontalStack=0;resizeParent=1;resizeParentMax=0;resizeLast=0;collapsible=1;marginBottom=0;whiteSpace=wrap;html=1;" vertex="1" parent="k2Xm3GfNOow417cLPWmE-55">
          <mxGeometry y="440" width="140" height="90" as="geometry" />
        </mxCell>
        <mxCell id="k2Xm3GfNOow417cLPWmE-67" style="edgeStyle=orthogonalEdgeStyle;rounded=0;orthogonalLoop=1;jettySize=auto;html=1;endArrow=none;endFill=0;" edge="1" parent="k2Xm3GfNOow417cLPWmE-47" source="k2Xm3GfNOow417cLPWmE-48">
          <mxGeometry relative="1" as="geometry">
            <mxPoint x="-70" y="-69.99999999999989" as="targetPoint" />
            <Array as="points">
              <mxPoint x="-70" y="45" />
            </Array>
          </mxGeometry>
        </mxCell>
        <mxCell id="k2Xm3GfNOow417cLPWmE-75" style="edgeStyle=orthogonalEdgeStyle;rounded=0;orthogonalLoop=1;jettySize=auto;html=1;endArrow=none;endFill=0;" edge="1" parent="k2Xm3GfNOow417cLPWmE-47" source="k2Xm3GfNOow417cLPWmE-48">
          <mxGeometry relative="1" as="geometry">
            <mxPoint x="210" y="-70" as="targetPoint" />
            <Array as="points">
              <mxPoint x="210" y="45" />
            </Array>
          </mxGeometry>
        </mxCell>
        <mxCell id="k2Xm3GfNOow417cLPWmE-48" value="value" style="text;strokeColor=none;fillColor=none;align=left;verticalAlign=middle;spacingLeft=4;spacingRight=4;overflow=hidden;points=[[0,0.5],[1,0.5]];portConstraint=eastwest;rotatable=0;whiteSpace=wrap;html=1;" vertex="1" parent="k2Xm3GfNOow417cLPWmE-47">
          <mxGeometry y="30" width="140" height="30" as="geometry" />
        </mxCell>
        <mxCell id="k2Xm3GfNOow417cLPWmE-49" value="__getitem__()" style="text;strokeColor=none;fillColor=none;align=left;verticalAlign=middle;spacingLeft=4;spacingRight=4;overflow=hidden;points=[[0,0.5],[1,0.5]];portConstraint=eastwest;rotatable=0;whiteSpace=wrap;html=1;" vertex="1" parent="k2Xm3GfNOow417cLPWmE-47">
          <mxGeometry y="60" width="140" height="30" as="geometry" />
        </mxCell>
        <mxCell id="k2Xm3GfNOow417cLPWmE-51" value="Note" style="swimlane;fontStyle=0;childLayout=stackLayout;horizontal=1;startSize=30;horizontalStack=0;resizeParent=1;resizeParentMax=0;resizeLast=0;collapsible=1;marginBottom=0;whiteSpace=wrap;html=1;" vertex="1" parent="k2Xm3GfNOow417cLPWmE-55">
          <mxGeometry y="550" width="140" height="90" as="geometry" />
        </mxCell>
        <mxCell id="k2Xm3GfNOow417cLPWmE-68" style="edgeStyle=orthogonalEdgeStyle;rounded=0;orthogonalLoop=1;jettySize=auto;html=1;endArrow=none;endFill=0;" edge="1" parent="k2Xm3GfNOow417cLPWmE-51" source="k2Xm3GfNOow417cLPWmE-52">
          <mxGeometry relative="1" as="geometry">
            <mxPoint x="-70" y="-70" as="targetPoint" />
          </mxGeometry>
        </mxCell>
        <mxCell id="k2Xm3GfNOow417cLPWmE-52" value="value" style="text;strokeColor=none;fillColor=none;align=left;verticalAlign=middle;spacingLeft=4;spacingRight=4;overflow=hidden;points=[[0,0.5],[1,0.5]];portConstraint=eastwest;rotatable=0;whiteSpace=wrap;html=1;" vertex="1" parent="k2Xm3GfNOow417cLPWmE-51">
          <mxGeometry y="30" width="140" height="30" as="geometry" />
        </mxCell>
        <mxCell id="k2Xm3GfNOow417cLPWmE-53" value="__getitem__()" style="text;strokeColor=none;fillColor=none;align=left;verticalAlign=middle;spacingLeft=4;spacingRight=4;overflow=hidden;points=[[0,0.5],[1,0.5]];portConstraint=eastwest;rotatable=0;whiteSpace=wrap;html=1;" vertex="1" parent="k2Xm3GfNOow417cLPWmE-51">
          <mxGeometry y="60" width="140" height="30" as="geometry" />
        </mxCell>
        <mxCell id="k2Xm3GfNOow417cLPWmE-62" value="" style="endArrow=diamondThin;endFill=1;endSize=24;html=1;rounded=0;" edge="1" parent="k2Xm3GfNOow417cLPWmE-77" source="k2Xm3GfNOow417cLPWmE-14">
          <mxGeometry width="160" relative="1" as="geometry">
            <mxPoint x="230" y="319.5" as="sourcePoint" />
            <mxPoint x="140" y="319.5" as="targetPoint" />
            <Array as="points">
              <mxPoint x="190" y="45" />
              <mxPoint x="190" y="200" />
              <mxPoint x="190" y="320" />
            </Array>
          </mxGeometry>
        </mxCell>
        <mxCell id="k2Xm3GfNOow417cLPWmE-69" style="edgeStyle=orthogonalEdgeStyle;rounded=0;orthogonalLoop=1;jettySize=auto;html=1;entryX=0.006;entryY=0.136;entryDx=0;entryDy=0;entryPerimeter=0;" edge="1" parent="k2Xm3GfNOow417cLPWmE-77" source="k2Xm3GfNOow417cLPWmE-14" target="k2Xm3GfNOow417cLPWmE-10">
          <mxGeometry relative="1" as="geometry">
            <Array as="points">
              <mxPoint x="470" y="45" />
              <mxPoint x="470" y="324" />
            </Array>
          </mxGeometry>
        </mxCell>
        <mxCell id="k2Xm3GfNOow417cLPWmE-76" style="edgeStyle=orthogonalEdgeStyle;rounded=0;orthogonalLoop=1;jettySize=auto;html=1;endArrow=none;endFill=0;" edge="1" parent="k2Xm3GfNOow417cLPWmE-77" source="k2Xm3GfNOow417cLPWmE-52">
          <mxGeometry relative="1" as="geometry">
            <mxPoint x="470" y="480" as="targetPoint" />
            <Array as="points">
              <mxPoint x="470" y="595" />
            </Array>
          </mxGeometry>
        </mxCell>
        <mxCell id="k2Xm3GfNOow417cLPWmE-103" style="edgeStyle=orthogonalEdgeStyle;rounded=0;orthogonalLoop=1;jettySize=auto;html=1;entryX=1;entryY=0.5;entryDx=0;entryDy=0;" edge="1" parent="1" source="k2Xm3GfNOow417cLPWmE-79" target="k2Xm3GfNOow417cLPWmE-98">
          <mxGeometry relative="1" as="geometry" />
        </mxCell>
        <mxCell id="k2Xm3GfNOow417cLPWmE-79" value="AddressBook(UserList)" style="swimlane;fontStyle=0;childLayout=stackLayout;horizontal=1;startSize=30;horizontalStack=0;resizeParent=1;resizeParentMax=0;resizeLast=0;collapsible=1;marginBottom=0;whiteSpace=wrap;html=1;" vertex="1" parent="1">
          <mxGeometry x="510" y="55" width="140" height="510" as="geometry">
            <mxRectangle x="510" y="55" width="160" height="30" as="alternateBounds" />
          </mxGeometry>
        </mxCell>
        <mxCell id="k2Xm3GfNOow417cLPWmE-80" value="data" style="text;strokeColor=none;fillColor=none;align=left;verticalAlign=middle;spacingLeft=4;spacingRight=4;overflow=hidden;points=[[0,0.5],[1,0.5]];portConstraint=eastwest;rotatable=0;whiteSpace=wrap;html=1;" vertex="1" parent="k2Xm3GfNOow417cLPWmE-79">
          <mxGeometry y="30" width="140" height="30" as="geometry" />
        </mxCell>
        <mxCell id="k2Xm3GfNOow417cLPWmE-81" value="counter" style="text;strokeColor=none;fillColor=none;align=left;verticalAlign=middle;spacingLeft=4;spacingRight=4;overflow=hidden;points=[[0,0.5],[1,0.5]];portConstraint=eastwest;rotatable=0;whiteSpace=wrap;html=1;" vertex="1" parent="k2Xm3GfNOow417cLPWmE-79">
          <mxGeometry y="60" width="140" height="30" as="geometry" />
        </mxCell>
        <mxCell id="k2Xm3GfNOow417cLPWmE-82" value="__str__()" style="text;strokeColor=none;fillColor=none;align=left;verticalAlign=middle;spacingLeft=4;spacingRight=4;overflow=hidden;points=[[0,0.5],[1,0.5]];portConstraint=eastwest;rotatable=0;whiteSpace=wrap;html=1;" vertex="1" parent="k2Xm3GfNOow417cLPWmE-79">
          <mxGeometry y="90" width="140" height="30" as="geometry" />
        </mxCell>
        <mxCell id="k2Xm3GfNOow417cLPWmE-89" value="__next__()" style="text;strokeColor=none;fillColor=none;align=left;verticalAlign=middle;spacingLeft=4;spacingRight=4;overflow=hidden;points=[[0,0.5],[1,0.5]];portConstraint=eastwest;rotatable=0;whiteSpace=wrap;html=1;" vertex="1" parent="k2Xm3GfNOow417cLPWmE-79">
          <mxGeometry y="120" width="140" height="30" as="geometry" />
        </mxCell>
        <mxCell id="k2Xm3GfNOow417cLPWmE-88" value="__iter__()" style="text;strokeColor=none;fillColor=none;align=left;verticalAlign=middle;spacingLeft=4;spacingRight=4;overflow=hidden;points=[[0,0.5],[1,0.5]];portConstraint=eastwest;rotatable=0;whiteSpace=wrap;html=1;" vertex="1" parent="k2Xm3GfNOow417cLPWmE-79">
          <mxGeometry y="150" width="140" height="30" as="geometry" />
        </mxCell>
        <mxCell id="k2Xm3GfNOow417cLPWmE-87" value="__setitem__(index, record)" style="text;strokeColor=none;fillColor=none;align=left;verticalAlign=middle;spacingLeft=4;spacingRight=4;overflow=hidden;points=[[0,0.5],[1,0.5]];portConstraint=eastwest;rotatable=0;whiteSpace=wrap;html=1;" vertex="1" parent="k2Xm3GfNOow417cLPWmE-79">
          <mxGeometry y="180" width="140" height="30" as="geometry" />
        </mxCell>
        <mxCell id="k2Xm3GfNOow417cLPWmE-86" value="__getitem__(index)" style="text;strokeColor=none;fillColor=none;align=left;verticalAlign=middle;spacingLeft=4;spacingRight=4;overflow=hidden;points=[[0,0.5],[1,0.5]];portConstraint=eastwest;rotatable=0;whiteSpace=wrap;html=1;" vertex="1" parent="k2Xm3GfNOow417cLPWmE-79">
          <mxGeometry y="210" width="140" height="30" as="geometry" />
        </mxCell>
        <mxCell id="k2Xm3GfNOow417cLPWmE-85" value="log(action)" style="text;strokeColor=none;fillColor=none;align=left;verticalAlign=middle;spacingLeft=4;spacingRight=4;overflow=hidden;points=[[0,0.5],[1,0.5]];portConstraint=eastwest;rotatable=0;whiteSpace=wrap;html=1;" vertex="1" parent="k2Xm3GfNOow417cLPWmE-79">
          <mxGeometry y="240" width="140" height="30" as="geometry" />
        </mxCell>
        <mxCell id="k2Xm3GfNOow417cLPWmE-84" value="add(record)" style="text;strokeColor=none;fillColor=none;align=left;verticalAlign=middle;spacingLeft=4;spacingRight=4;overflow=hidden;points=[[0,0.5],[1,0.5]];portConstraint=eastwest;rotatable=0;whiteSpace=wrap;html=1;" vertex="1" parent="k2Xm3GfNOow417cLPWmE-79">
          <mxGeometry y="270" width="140" height="30" as="geometry" />
        </mxCell>
        <mxCell id="k2Xm3GfNOow417cLPWmE-83" value="save(file_name)" style="text;strokeColor=none;fillColor=none;align=left;verticalAlign=middle;spacingLeft=4;spacingRight=4;overflow=hidden;points=[[0,0.5],[1,0.5]];portConstraint=eastwest;rotatable=0;whiteSpace=wrap;html=1;" vertex="1" parent="k2Xm3GfNOow417cLPWmE-79">
          <mxGeometry y="300" width="140" height="30" as="geometry" />
        </mxCell>
        <mxCell id="k2Xm3GfNOow417cLPWmE-96" value="load(file_name)" style="text;strokeColor=none;fillColor=none;align=left;verticalAlign=middle;spacingLeft=4;spacingRight=4;overflow=hidden;points=[[0,0.5],[1,0.5]];portConstraint=eastwest;rotatable=0;whiteSpace=wrap;html=1;" vertex="1" parent="k2Xm3GfNOow417cLPWmE-79">
          <mxGeometry y="330" width="140" height="30" as="geometry" />
        </mxCell>
        <mxCell id="k2Xm3GfNOow417cLPWmE-95" value="search(pattern, category)" style="text;strokeColor=none;fillColor=none;align=left;verticalAlign=middle;spacingLeft=4;spacingRight=4;overflow=hidden;points=[[0,0.5],[1,0.5]];portConstraint=eastwest;rotatable=0;whiteSpace=wrap;html=1;" vertex="1" parent="k2Xm3GfNOow417cLPWmE-79">
          <mxGeometry y="360" width="140" height="30" as="geometry" />
        </mxCell>
        <mxCell id="k2Xm3GfNOow417cLPWmE-94" value="edit(contact_name, parameter, new_value)" style="text;strokeColor=none;fillColor=none;align=left;verticalAlign=middle;spacingLeft=4;spacingRight=4;overflow=hidden;points=[[0,0.5],[1,0.5]];portConstraint=eastwest;rotatable=0;whiteSpace=wrap;html=1;" vertex="1" parent="k2Xm3GfNOow417cLPWmE-79">
          <mxGeometry y="390" width="140" height="30" as="geometry" />
        </mxCell>
        <mxCell id="k2Xm3GfNOow417cLPWmE-93" value="remove(pattern)" style="text;strokeColor=none;fillColor=none;align=left;verticalAlign=middle;spacingLeft=4;spacingRight=4;overflow=hidden;points=[[0,0.5],[1,0.5]];portConstraint=eastwest;rotatable=0;whiteSpace=wrap;html=1;" vertex="1" parent="k2Xm3GfNOow417cLPWmE-79">
          <mxGeometry y="420" width="140" height="30" as="geometry" />
        </mxCell>
        <mxCell id="k2Xm3GfNOow417cLPWmE-92" value="__get_current_week()" style="text;strokeColor=none;fillColor=none;align=left;verticalAlign=middle;spacingLeft=4;spacingRight=4;overflow=hidden;points=[[0,0.5],[1,0.5]];portConstraint=eastwest;rotatable=0;whiteSpace=wrap;html=1;" vertex="1" parent="k2Xm3GfNOow417cLPWmE-79">
          <mxGeometry y="450" width="140" height="30" as="geometry" />
        </mxCell>
        <mxCell id="k2Xm3GfNOow417cLPWmE-91" value="congratulate()" style="text;strokeColor=none;fillColor=none;align=left;verticalAlign=middle;spacingLeft=4;spacingRight=4;overflow=hidden;points=[[0,0.5],[1,0.5]];portConstraint=eastwest;rotatable=0;whiteSpace=wrap;html=1;" vertex="1" parent="k2Xm3GfNOow417cLPWmE-79">
          <mxGeometry y="480" width="140" height="30" as="geometry" />
        </mxCell>
        <mxCell id="k2Xm3GfNOow417cLPWmE-97" value="Bot" style="swimlane;fontStyle=0;childLayout=stackLayout;horizontal=1;startSize=30;horizontalStack=0;resizeParent=1;resizeParentMax=0;resizeLast=0;collapsible=1;marginBottom=0;whiteSpace=wrap;html=1;" vertex="1" parent="1">
          <mxGeometry x="260" y="265" width="140" height="90" as="geometry" />
        </mxCell>
        <mxCell id="k2Xm3GfNOow417cLPWmE-98" value="book" style="text;strokeColor=none;fillColor=none;align=left;verticalAlign=middle;spacingLeft=4;spacingRight=4;overflow=hidden;points=[[0,0.5],[1,0.5]];portConstraint=eastwest;rotatable=0;whiteSpace=wrap;html=1;" vertex="1" parent="k2Xm3GfNOow417cLPWmE-97">
          <mxGeometry y="30" width="140" height="30" as="geometry" />
        </mxCell>
        <mxCell id="k2Xm3GfNOow417cLPWmE-99" value="handle(action)" style="text;strokeColor=none;fillColor=none;align=left;verticalAlign=middle;spacingLeft=4;spacingRight=4;overflow=hidden;points=[[0,0.5],[1,0.5]];portConstraint=eastwest;rotatable=0;whiteSpace=wrap;html=1;" vertex="1" parent="k2Xm3GfNOow417cLPWmE-97">
          <mxGeometry y="60" width="140" height="30" as="geometry" />
        </mxCell>
        <mxCell id="k2Xm3GfNOow417cLPWmE-104" value="1" style="endArrow=none;html=1;endSize=12;startArrow=diamondThin;startSize=14;startFill=1;edgeStyle=orthogonalEdgeStyle;align=left;verticalAlign=bottom;rounded=0;endFill=0;" edge="1" parent="1">
          <mxGeometry x="-1" y="3" relative="1" as="geometry">
            <mxPoint x="650" y="309.55" as="sourcePoint" />
            <mxPoint x="740" y="310" as="targetPoint" />
          </mxGeometry>
        </mxCell>
      </root>
    </mxGraphModel>
  </diagram>
</mxfile>
